<svg id="レイヤー_1" data-name="レイヤー 1" xmlns="http://www.w3.org/2000/svg" viewBox="0 0 1245.74 914.87"><defs><style>.cls-1{fill:#ebdfd0;}</style></defs><path class="cls-1" d="M947.81,709.36l-5.4,15.22H889.63l-6.51-12.09a4.56,4.56,0,0,0-8.35.68l-3.85,11.41H806.09l53.43-158.35H816.2V499.57H946.8L903.05,629.31Z"/><path class="cls-1" d="M1154.44,613.26c0,45.51,0,66.31-7.59,83.07-12.81,28.25-37.93,28.25-58.15,28.25H958.53l80.52-227h65.23l-56.84,160.28h38.93c3.77,0,6.87-3.27,7-7.41.29-10.18.29-23.46.29-37.2Z"/><path class="cls-1" d="M311.21,274.54H242.85v-9.71a23.51,23.51,0,0,0-23.51-23.5H150.67V180.17h99.4c50.53,0,61.14,29.25,61.14,59.83Zm-57.61-33Z"/><path class="cls-1" d="M285.84,594.51H225v-32.4H91.3V495.43H231.47c36.08,0,54.37,22,54.37,65.39Z"/><path class="cls-1" d="M600.43,560.8V724.58H424.17c.5-.51,1-1.05,1.51-1.62l57.6-65.09h56.34V562.1H442.51V495.43H546.06C591,495.43,600.43,531,600.43,560.8Z"/><path class="cls-1" d="M242.21,453.72H141.82V385.36H242.21c23,0,23-7.4,23-17.64,0-3.86,0-12.88-26-12.88H141.82V286.48h97.41c57.31,0,94.35,31.89,94.35,81.24C333.58,420.77,298.57,453.72,242.21,453.72Z"/><path class="cls-1" d="M417,453.77c-44.44,0-61.59-22.61-67.86-36.08-14.71-31.63,2.22-69.57,17.19-87.34,8.28-9.83,18.33-19.24,28.06-28.35,21.27-19.9,43.26-40.48,43.26-61.16V183H506v57.8c0,50.33-37.52,85.43-64.91,111.07-8.65,8.1-18.86,17.86-22.48,22.47s-2.83,10.91,4.67,10.91l71.06.07.16,68.36S477.13,453.77,417,453.77Z"/><path class="cls-1" d="M411.34,356.6c-46.4-13.73-75.22-55.15-75.22-108.12v-53.8h68.36v53.8c0,10.47,2.56,35.56,26.25,42.57Z"/><path class="cls-1" d="M702,333.62V385c-.06,6.7-4.19,9.24-7.37,9.24-2.51,0-6.15-1.84-6.15-9v-51a32.86,32.86,0,0,0-32.86-32.86h0c.06-2.36.12-4.72.12-7.12V183H587.41V294.12c0,26.11-5.6,49.06-15.76,64.64-11.86,18.18-29.87,26.65-56.66,26.65v68.36c45.88,0,82.56-17.09,107-47.72,4.74,21.07,20.95,47.67,72.7,47.67,20.3,0,36.32-4.09,49-12.51,17.24-11.47,26.75-30.21,26.75-52.76V333.62Z"/><rect class="cls-1" x="514.82" y="183.04" width="28.78" height="71.63"/><rect class="cls-1" x="951.8" y="499.55" width="24" height="76.28"/><rect class="cls-1" x="981.03" y="499.55" width="24" height="76.28"/><rect class="cls-1" x="607.17" y="499.55" width="24" height="76.28"/><rect class="cls-1" x="636.41" y="499.55" width="24" height="76.28"/><rect class="cls-1" x="550.05" y="183.04" width="28.78" height="71.63"/><path class="cls-1" d="M878.87,470H849.51a54.34,54.34,0,0,1-54.28-54.28V302a54.34,54.34,0,0,1,54.28-54.28h29.36A54.34,54.34,0,0,1,933.15,302v113.7A54.34,54.34,0,0,1,878.87,470ZM849.51,298.12A3.91,3.91,0,0,0,845.6,302v113.7a3.91,3.91,0,0,0,3.91,3.91h29.36a3.92,3.92,0,0,0,3.91-3.91V302a3.92,3.92,0,0,0-3.91-3.91Z"/><rect class="cls-1" x="820.41" y="335.21" width="87.55" height="50.37"/><path class="cls-1" d="M945.64,469.89V419.52c58.29,0,70.65-10.24,82.82-18.83,9.44-6.66,13.46-14.49,13.46-26.17V301.24c0-18.52-3.69-25.1-24.44-25.1H973.21V225.77h44.27c46.85,0,74.81,28.22,74.81,75.47v73.28c0,28-12,51.27-34.79,67.32C1030.75,460.71,1003.85,469.89,945.64,469.89Z"/><rect class="cls-1" x="944.63" y="201.26" width="58.52" height="143.08"/><path class="cls-1" d="M343.9,700.05V495.43H398L397.26,658a1,1,0,0,0,1.73.65L423,631l63.44-.79L404.37,723C383.27,746.81,343.9,731.89,343.9,700.05Z"/><polygon class="cls-1" points="147.35 574.83 98.03 724.57 162.77 724.57 212.1 574.83 147.35 574.83"/><polygon class="cls-1" points="867.14 298.12 912.63 201.26 837.11 201.26 802.36 275.25 851.05 298.12 867.14 298.12"/><rect class="cls-1" x="672.18" y="498.56" width="54.82" height="125.73"/><path class="cls-1" d="M716.2,721.81H639.08V660.65H716.2c15.8,0,23.73,0,23.73-46.61V499.55h61.16V614C801.09,643.52,801.09,721.81,716.2,721.81Z"/><polygon class="cls-1" points="1005.58 352.09 947.2 352.09 1018.05 424.66 1047.94 395.48 1005.58 352.09"/><polygon class="cls-1" points="304.98 724.58 335.99 605.22 275.21 605.22 245.38 724.58 304.98 724.58"/></svg>