<svg id="レイヤー_1" data-name="レイヤー 1" xmlns="http://www.w3.org/2000/svg" viewBox="0 0 2161.13 1209.12"><defs><style>.cls-1{fill:#ebdfd0;}</style></defs><path class="cls-1" d="M1741.1,1075.73l-11,30.94H1622.84l-13.24-24.57a9.28,9.28,0,0,0-17,1.38l-7.82,23.19H1453l108.6-321.88h-88V649.27h265.48L1650.12,913Z"/><path class="cls-1" d="M2161.13,880.38c0,92.52,0,134.79-15.44,168.88-26,57.41-77.08,57.41-118.18,57.41H1762.9l163.68-461.42h132.59L1943.62,971.07h79.13c7.68,0,14-6.65,14.19-15.06.59-20.7.59-47.69.59-75.63Z"/><path class="cls-1" d="M447,191.83h-139V172.11a47.78,47.78,0,0,0-47.78-47.78H120.69V0H322.75C425.46,0,447,59.47,447,121.63Zm-117.1-67.14Z"/><path class="cls-1" d="M395.46,842.26H271.87V776.41H0V640.86H284.93c73.34,0,110.53,44.72,110.53,132.92Z"/><path class="cls-1" d="M1034.94,773.75v332.92H676.64c1-1,2.05-2.12,3.08-3.29L796.81,971.07H911.34V776.38H713.94V640.86H924.43C1015.78,640.86,1034.94,713.12,1034.94,773.75Z"/><path class="cls-1" d="M306.77,556.08H102.7v-139H306.77c46.77,0,46.77-15,46.77-35.87,0-7.83,0-26.18-52.83-26.18h-198v-139h198c116.51,0,191.79,64.82,191.79,165.14C492.5,489.1,421.33,556.08,306.77,556.08Z"/><path class="cls-1" d="M662,556.17c-90.33,0-125.19-45.95-137.93-73.33-29.92-64.31,4.5-141.42,34.93-177.55,16.83-20,37.27-39.12,57-57.62C659.25,207.2,704,165.37,704,123.34V5.84h139v117.5c0,102.3-76.26,173.66-131.94,225.78-17.58,16.46-38.34,36.31-45.71,45.68S659.52,417,674.76,417s144.34.15,144.44.15l.34,139S784.31,556.17,662,556.17Z"/><path class="cls-1" d="M650.57,358.66c-94.32-27.91-152.9-112.12-152.9-219.79V29.5h139V138.87c0,21.27,5.2,72.28,53.37,86.54Z"/><path class="cls-1" d="M1241.47,312V416.28c-.12,13.63-8.5,18.79-15,18.79-5.1,0-12.51-3.75-12.51-18.38V312.92a66.79,66.79,0,0,0-66.79-66.8h0c.13-4.79.25-9.6.25-14.48V5.84h-139v225.8c0,53.07-11.38,99.74-32,131.41-24.11,36.95-60.7,54.16-115.16,54.16v139c93.25,0,167.83-34.74,217.45-97,9.62,42.84,42.58,96.91,147.77,96.91,41.27,0,73.83-8.32,99.56-25.43,35.06-23.33,54.37-61.42,54.37-107.26V312Z"/><rect class="cls-1" x="860.93" y="5.84" width="58.51" height="145.62"/><rect class="cls-1" x="1749.21" y="649.24" width="48.79" height="155.07"/><rect class="cls-1" x="1808.63" y="649.24" width="48.79" height="155.07"/><rect class="cls-1" x="1048.66" y="649.24" width="48.79" height="155.07"/><rect class="cls-1" x="1108.09" y="649.24" width="48.79" height="155.07"/><rect class="cls-1" x="932.53" y="5.84" width="58.51" height="145.62"/><path class="cls-1" d="M1601,589.19h-59.67a110.46,110.46,0,0,1-110.34-110.34V247.72a110.46,110.46,0,0,1,110.34-110.35H1601a110.46,110.46,0,0,1,110.34,110.35V478.85A110.46,110.46,0,0,1,1601,589.19Zm-59.67-349.42a8,8,0,0,0-8,7.95V478.85a8,8,0,0,0,8,7.95H1601a8,8,0,0,0,8-7.95V247.72a8,8,0,0,0-8-7.95Z"/><rect class="cls-1" x="1482.13" y="315.17" width="177.96" height="102.39"/><path class="cls-1" d="M1736.69,588.94V486.55c118.48,0,143.61-20.82,168.36-38.28,19.17-13.53,27.36-29.44,27.36-53.19v-149c0-37.65-7.51-51-49.7-51h-90V92.71h90c95.24,0,152.09,57.35,152.09,153.41v149c0,56.88-24.45,104.22-70.73,136.86C1909.7,570.29,1855,588.94,1736.69,588.94Z"/><rect class="cls-1" x="1734.64" y="42.88" width="118.95" height="290.84"/><path class="cls-1" d="M513.47,1056.81V640.86H623.41L622,971.23a2,2,0,0,0,3.52,1.33l48.87-56.12,128.95-1.6L636.41,1103.4C593.52,1151.86,513.47,1121.52,513.47,1056.81Z"/><polygon class="cls-1" points="113.93 802.26 13.67 1106.66 145.29 1106.66 245.55 802.26 113.93 802.26"/><polygon class="cls-1" points="1577.12 239.77 1669.59 42.88 1516.07 42.88 1445.43 193.28 1544.4 239.77 1577.12 239.77"/><rect class="cls-1" x="1180.8" y="647.23" width="111.44" height="255.59"/><path class="cls-1" d="M1270.29,1101.05H1113.53V976.71h156.76c32.11,0,48.23,0,48.23-94.73V649.24h124.33V882C1442.85,941.9,1442.85,1101.05,1270.29,1101.05Z"/><polygon class="cls-1" points="1858.53 349.48 1739.85 349.48 1883.87 497 1944.65 437.69 1858.53 349.48"/><polygon class="cls-1" points="434.36 1106.67 497.4 864.03 373.85 864.03 313.22 1106.67 434.36 1106.67"/><path class="cls-1" d="M1015,1154l-4.5,21.35c-.14.81-.36,1.77-.66,2.95-1,4.71-1.32,6.4-1.32,8.09,0,4.27,2.72,5.38,13.1,5.38,12.07,0,15.09-.37,17.15-2.28,1.55-1.41,2.43-3.32,3.39-7.66.22-.88.22-.88.73-3.24.22-1.25.3-1.69.37-2.06l4.78-22.53h15l-5.52,25.77c-2.58,13.17-4.71,17.07-11.41,20.83-5.89,2.72-6.84,2.87-25.32,2.94-16.56-.14-18-.22-21.64-1.76a9.5,9.5,0,0,1-6.4-9.35c0-3.39.29-5.45,1.69-12l5.59-26.43Z"/><path class="cls-1" d="M1072.66,1154h42.39c8.1,0,12.37.74,15.24,2.51,3.09,1.91,4.64,4.93,4.64,9.13,0,5.29-2.65,18.4-5.15,25.24-2.14,5.89-7.14,10.38-12.74,11.49-2.8.58-5.15.73-10.45.73H1062.2Zm32,37.4c5.08,0,6.48-.3,8.47-1.62s3.31-3.76,4.64-9.5a39.22,39.22,0,0,0,1.25-8.17c0-4.49-2-5.89-8.69-5.89H1085l-5.37,25.18Z"/><path class="cls-1" d="M1205.29,1155.88c3.09,1.55,4.71,5,4.71,10,0,2.57-.51,5.89-2.43,14.72-1.84,8.32-3.38,12.44-6.11,15.75-3.68,4.42-8.53,6.48-16.56,7-3.09.15-9.49.3-16,.3-17.15,0-21.13-.37-25.18-2.36-3.09-1.54-4.71-4.93-4.71-9.86,0-2.87.66-6.7,2.8-16.42,2.8-13,6.33-17.66,15-20,4.27-1.18,9.06-1.47,21.57-1.47C1198.15,1153.53,1201,1153.75,1205.29,1155.88Zm-46.37,13.7c-1.62,2.79-3.9,12.51-3.9,16.71,0,4.56,2.21,5.37,14.87,5.37,6.62,0,10.38-.07,12.95-.29,5.74-.52,7.88-2.73,9.64-9.87,1.26-5.52,1.84-8.83,1.84-10.82,0-4.64-1.69-5.15-16.78-5.15C1163.34,1165.53,1160.91,1166,1158.92,1169.58Z"/><path class="cls-1" d="M1222.07,1154h23.78l21.78,37.33,7.51-37.33h14.13l-10.37,49.1h-24l-21.49-37-7.44,37h-14.35Z"/><path class="cls-1" d="M1301.19,1154h15v49.1h-15Z"/><path class="cls-1" d="M1390.41,1184.67c-.08,7.14-.3,9.57-1.33,11.77-1.91,4.2-5.89,6.19-13.54,6.7-3,.3-8.91.37-18.7.37-14.13,0-18.7-.66-22.67-3.24-4.86-3.09-6.26-8.24-6.26-22.82,0-13,1.47-17.59,6.63-20.53,4.41-2.58,9.12-3.24,22.89-3.24,18.33,0,22.3.36,26.5,2.43,4,2,5.81,6.33,5.81,13.54v1.62h-14.28c-.29-5.37-1.4-5.82-14.35-5.82-12.22,0-14.43.3-16.27,1.92s-2.13,3.6-2.13,11.56c0,11.77,1.1,12.66,15.45,12.66,11.12,0,12.74-.08,14.8-1s2.94-2.43,2.94-6Z"/><path class="cls-1" d="M1442.29,1154h20l26.87,49.1h-16.34l-4.86-8.76h-31.65l-4.71,8.76h-16.93Zm20.47,30.11-10.6-19.58-10.46,19.58Z"/><path class="cls-1" d="M1496,1154H1511v37h33.79v12.14H1496Z"/><path class="cls-1" d="M1601,1170.68c0-3.83-1.69-5.3-6.18-5.45h-3.75l-5.3-.07-5.45.07c-7.14,0-7.14,0-8.91.45-2.72.66-3.9,2.06-4.27,5.15a89.5,89.5,0,0,0-.36,9c0,6.62.66,9.27,2.72,10.67,1.69,1.11,3.75,1.55,7.65,1.62,1.62.07,1.62.07,10.83.07,9.78.08,11.63-.44,12.88-3.68a11.17,11.17,0,0,0,.22-2.72v-1.18h-18.92v-9.13h33.49v6.78c0,8.09-.29,11-1.25,13.62-1.69,4.56-5.15,6.77-11.34,7.43-1.54.15-6,.22-20.53.22-11.26,0-15.61-.22-18.7-.88-5.37-1.18-8.54-3.46-10.23-7.51-1.47-3.31-1.84-6.77-1.84-15.9,0-10.53.59-14.72,2.5-18.18,2.21-3.83,5.67-5.82,12-6.7,3.39-.44,9.35-.66,18.7-.66,13.39,0,17.66.22,20.76,1,7.58,1.92,10,5.74,9.93,16Z"/><path class="cls-1" d="M1677.83,1154.27c7.58,1.39,11.26,5.3,12.29,13.17a102.17,102.17,0,0,1,.44,11.93c0,11.85-1.25,16.63-5.45,20.09-2.94,2.5-7.06,3.68-14.2,4-2.65.14-9.2.22-14,.22-11.7,0-17.66-.22-20.61-.81-5.45-1-8.61-3-10.45-6.63s-2.36-7.21-2.36-18c0-8.24.15-10.3,1-13.62,1.4-5.22,4.27-8,9.79-9.64,4.13-1.18,8.62-1.47,21.57-1.47C1670,1153.53,1674.37,1153.68,1677.83,1154.27Zm-36.66,13c-2,1.55-2.58,4-2.58,11s.59,9.86,2.43,11.41c2,1.62,4.42,1.91,15.68,1.91,12.88,0,15.53-.44,17.23-2.8,1.39-1.76,1.76-4.27,1.76-10.82,0-12.36-.22-12.51-18.62-12.51C1646.1,1165.53,1643.08,1165.9,1641.17,1167.29Z"/><path class="cls-1" d="M1699.39,1154h42.32c8.69,0,12.52.74,15.31,3.1s4.2,6.48,4.2,13.1c0,9.13-2.21,12.73-8.46,14.13,6.1,1,7.94,3.61,7.8,11v7.73h-15.17V1197c-.07-5.3-1.54-6.4-8.24-6.25h-22.89v12.36h-14.87Zm38.2,24.74c7.22,0,8.61-.89,8.61-5.74,0-3.17-.29-4.49-1.25-5.52-1.1-1.18-2.35-1.4-6.84-1.4h-23.85v12.66Z"/><path class="cls-1" d="M1774.76,1154h14.94v49.1h-14.94Z"/><path class="cls-1" d="M1822.53,1166.19h-21.86V1154h58.66v12.15h-21.86v37h-14.94Z"/><path class="cls-1" d="M1868.82,1154h15v18.19h34V1154h15v49.1h-15v-18.77h-34v18.77h-15Z"/><path class="cls-1" d="M1945.44,1154h23.71l17.88,32.61,17.82-32.61h23.55v49.1h-14.57l.73-37.91-21.79,37.91h-11.92l-21.42-37.91.44,37.91h-14.43Z"/></svg>